<?xml version="1.0" encoding="UTF-8" standalone="no" ?>
<!DOCTYPE svg PUBLIC "-//W3C//DTD SVG 1.1//EN" "http://www.w3.org/Graphics/SVG/1.1/DTD/svg11.dtd">
<svg xmlns="http://www.w3.org/2000/svg" xmlns:xlink="http://www.w3.org/1999/xlink" version="1.1" width="1080" height="1080" viewBox="0 0 1080 1080" xml:space="preserve">
<desc>Created with Fabric.js 5.2.4</desc>
<defs>
</defs>
<rect x="0" y="0" width="100%" height="100%" fill="transparent"></rect>
<g transform="matrix(1 0 0 1 540 540)" id="b82ca105-68ea-4a4b-9c43-af36ea6948d8"  >
<rect style="stroke: none; stroke-width: 1; stroke-dasharray: none; stroke-linecap: butt; stroke-dashoffset: 0; stroke-linejoin: miter; stroke-miterlimit: 4; fill: rgb(255,255,255); fill-rule: nonzero; opacity: 1; visibility: hidden;" vector-effect="non-scaling-stroke"  x="-540" y="-540" rx="0" ry="0" width="1080" height="1080" />
</g>
<g transform="matrix(1 0 0 1 540 540)" id="3f6e44bf-27c1-459f-9639-843874df10d5"  >
</g>
<g transform="matrix(-2.04 0 0 -2.04 540 562.27)" id="46d56516-ecf8-4b5c-a270-a6a305fd87f7"  >
<path style="stroke: rgb(0,0,0); stroke-width: 0; stroke-dasharray: none; stroke-linecap: butt; stroke-dashoffset: 0; stroke-linejoin: miter; stroke-miterlimit: 4; fill: rgb(255,255,255); fill-rule: nonzero; opacity: 1;" vector-effect="non-scaling-stroke"  transform=" translate(-258.9, -153.3)" d="M 258.9 306.6 L 9.899999999999977 57.60000000000002 C -3.3 44.5 -3.3 23.1 9.9 9.9 C 23.1 -3.299999999999999 44.5 -3.299999999999999 57.699999999999996 9.9 L 258.9 211.1 L 460.1 9.9 C 473.3 -3.299999999999999 494.70000000000005 -3.299999999999999 507.90000000000003 9.9 C 521.1 23.1 521.1 44.5 507.90000000000003 57.699999999999996 L 258.9 306.6 z" stroke-linecap="round" />
</g>
</svg>