<svg width="100" height="101" viewBox="0 0 100 101" fill="none" xmlns="http://www.w3.org/2000/svg">
<path d="M90.1999 57.8325H90.2213H90.1856H90.1999ZM87.6856 55.9753C88.0428 57.111 89.0678 57.8253 90.1999 57.8325C90.4499 57.8325 90.7285 57.761 91.007 57.6896C92.3999 57.261 93.1856 55.7253 92.7213 54.3325C92.6142 54.011 81.8999 22.1182 49.9999 22.1182C18.0999 22.1182 7.38204 54.011 7.27489 54.3325C6.81061 55.7253 7.59632 57.2253 8.98918 57.6896C10.4178 58.1539 11.9178 57.3682 12.382 55.9753L12.3928 55.9575C12.8678 54.5646 22.1678 27.4753 50.0356 27.4753C78.0428 27.4753 87.2928 54.7967 87.6856 55.9753ZM32.1428 57.8325C32.1428 53.0964 34.0241 48.5544 37.373 45.2055C40.7219 41.8567 45.2639 39.9753 49.9999 39.9753C54.7359 39.9753 59.2779 41.8567 62.6268 45.2055C65.9757 48.5544 67.857 53.0964 67.857 57.8325C67.857 62.5685 65.9757 67.1105 62.6268 70.4594C59.2779 73.8082 54.7359 75.6896 49.9999 75.6896C45.2639 75.6896 40.7219 73.8082 37.373 70.4594C34.0241 67.1105 32.1428 62.5685 32.1428 57.8325Z" fill="#F9F9FA"/>
</svg>
